<svg xmlns="http://www.w3.org/2000/svg" viewBox="0 0 406 226" enable-background="new 0 0 406 226"><g fill="#FFF"><path d="M188.1 224.3h-1.9c-3.8-4.5-10.3-12.3-11.3-13.8v13.8h-2v-17.4h1.8c3.8 4.5 10.2 12.1 11.4 13.9v-13.9h2v17.4zM192 215.3c0-4.9 3.7-8.7 8.7-8.7s8.7 3.8 8.7 8.7c0 5.2-3.3 9.3-8.7 9.3-5.4 0-8.7-4.1-8.7-9.3zm14.7 0c0-3.3-1.7-7-6-7s-6 3.7-6 7c0 3.4 1.5 7.6 6 7.6 4.5-.1 6-4.2 6-7.6zM223.5 206.9c1.4 4.7 2.8 9.4 4.2 14.7 1.4-5.4 2.8-10.2 4.3-14.9l1.9.3-5.4 17.3h-2.1c-1.4-4.6-2.8-9.2-4.1-14.4-1.4 5.1-2.8 9.7-4.2 14.4H216l-5.1-17.2 2.3-.5c1.4 4.8 2.7 9.6 4.1 14.9h.1c1.4-5.3 2.8-10 4.2-14.7h1.9zM244.5 224.3v-17.4h2.4v17.4h-2.4zM255.3 224.3v-15.7h-5.6v-1.7h13.6v1.7h-5.6v15.7h-2.4zM265.1 212.7l1.5-4.3c.6-1.6.9-2.4 2-2.4.9 0 1.2 1.4.3 2.9l-2.4 4.3-1.4-.5zM280.5 209.6c-.8-.6-2-1.2-3-1.2-1.7 0-2.7 1-2.7 2.4 0 1.2 1.1 2.2 3.3 3.8 2.4 1.7 3.8 3.3 3.8 5.6 0 2.8-2.6 4.5-5.4 4.5-1.7 0-3.7-.6-4.9-1.8l1.1-1.4c1 .7 2.1 1.5 3.8 1.5 1.7 0 3-.9 3-2.9 0-2.2-2.6-3.6-4-4.6-1.4-1.1-3.1-2.2-3.1-4.6 0-2.3 2.3-4.1 5-4.1 1.8 0 3.3.6 4.3 1.7l-1.2 1.1zM295.9 206.9v10.5c0 3.6 1.3 5.5 4.4 5.5 3.3 0 4.4-2.6 4.4-5.1v-11h2.3v11c0 3.9-2.4 6.7-6.6 6.7-4.9 0-6.9-2.6-6.9-7.1v-10.6h2.4zM314 224.3h-2.4v-17.4h4.4c3.7 0 5.9 1.6 5.9 5 0 2.9-2.5 5.6-6.4 5.6h-.8v-1.6h.8c2.3-.1 3.8-1.4 3.8-4 0-1.9-1.1-3.3-3.7-3.3H314v15.7zM337 224.3v-15.7h-5.6v-1.7H345v1.7h-5.6v15.7H337zM346.1 215.3c0-4.9 3.7-8.7 8.7-8.7 5 0 8.7 3.8 8.7 8.7 0 5.2-3.3 9.3-8.7 9.3-5.4 0-8.7-4.1-8.7-9.3zm14.8 0c0-3.3-1.7-7-6-7s-6 3.7-6 7c0 3.4 1.5 7.6 6 7.6 4.4-.1 6-4.2 6-7.6zM377.4 206.9v10.5c0 3.6 1.3 5.5 4.5 5.5 3.3 0 4.3-2.6 4.3-5.1v-11h2.3v11c0 3.9-2.4 6.7-6.6 6.7-4.9 0-6.9-2.6-6.9-7.1v-10.6h2.4zM400.6 209.6c-.8-.6-2-1.2-3-1.2-1.7 0-2.7 1-2.7 2.4 0 1.2 1.1 2.2 3.3 3.8 2.4 1.7 3.8 3.3 3.8 5.6 0 2.8-2.6 4.5-5.4 4.5-1.7 0-3.7-.6-4.9-1.8l1.1-1.4c1 .7 2.1 1.5 3.8 1.5 1.7 0 3-.9 3-2.9 0-2.2-2.6-3.6-4-4.6-1.4-1.1-3.1-2.2-3.1-4.6 0-2.3 2.3-4.1 5-4.1 1.8 0 3.3.6 4.3 1.7l-1.2 1.1z"/></g><defs><filter id="a" filterUnits="userSpaceOnUse" x="1.6" y="104.6" width="83.5" height="43.5"><feFlood result="back" flood-color="#fff" flood-opacity="1"/><feBlend in="SourceGraphic" in2="back"/></filter></defs><mask maskUnits="userSpaceOnUse" x="1.6" y="104.6" width="83.5" height="43.5" id="c"><g filter="url(#a)"><defs><filter id="b" filterUnits="userSpaceOnUse" x="1.6" y="104.6" width="83.5" height="43.5"><feFlood result="back" flood-color="#fff" flood-opacity="1"/><feBlend in="SourceGraphic" in2="back"/></filter></defs><linearGradient id="d" gradientUnits="userSpaceOnUse" x1="42.726" y1="154.496" x2="44.359" y2="98.984"><stop offset=".147" stop-color="#FFF"/><stop offset=".218" stop-color="#E0E0E0"/><stop offset=".384" stop-color="#9D9D9D"/><stop offset=".541" stop-color="#656565"/><stop offset=".686" stop-color="#393939"/><stop offset=".815" stop-color="#1A1A1A"/><stop offset=".924" stop-color="#070707"/><stop offset="1"/></linearGradient><path mask="url(#c)" fill="url(#d)" d="M76 116.1l-32-.3-12.3-9.7c-1-.8-3.4-1.5-5.3-1.5s-2.7.6-1.8 1.4l11.7 9.7-32-.3c-2.1 0-3.2.6-2.5 1.4.7.8 3.1 1.5 5.2 1.5l32.7.3 35.7 29.5H85l-37.5-29.5 32.7.3c2.2 0 2.9-.6 1.7-1.4-1.1-.8-3.8-1.4-5.9-1.4z"/></g></mask><linearGradient id="e" gradientUnits="userSpaceOnUse" x1="42.726" y1="154.496" x2="44.359" y2="98.984"><stop offset=".147" stop-color="#8EA4BF"/><stop offset="1" stop-color="#8EA4BF" stop-opacity="0"/></linearGradient><path fill="url(#e)" d="M76 116.1l-32-.3-12.3-9.7c-1-.8-3.4-1.5-5.3-1.5s-2.7.6-1.8 1.4l11.7 9.7-32-.3c-2.1 0-3.2.6-2.5 1.4.7.8 3.1 1.5 5.2 1.5l32.7.3 35.7 29.5H85l-37.5-29.5 32.7.3c2.2 0 2.9-.6 1.7-1.4-1.1-.8-3.8-1.4-5.9-1.4z"/><path fill="#738EAE" d="M125.4 38.9H85.1V6.3c0-2.7-2.2-4.8-4.8-4.8-2.7 0-4.8 2.2-4.8 4.8v32.6H35.3c-2.7 0-4.8 2.2-4.8 4.8 0 2.7 2.2 4.8 4.8 4.8h40.2V148h9.6V48.5h40.2c2.7 0 4.8-2.2 4.8-4.8.1-2.6-2.1-4.8-4.7-4.8z"/><g fill="#FFF"><path d="M124.5 109.3c0 5.5-.2 5.2 5.1 5.9v1.5h-15.9v-1.5c5.3-.7 5.1-.4 5.1-5.9V82.7c0-5.5.2-5.2-5.1-5.9v-1.5h15.9v1.5c-5.3.7-5.1.4-5.1 5.9v10.2h20.8V82.7c0-5.5.2-5.2-5.1-5.9v-1.5H156v1.5c-5.3.7-5.1.4-5.1 5.9v26.6c0 5.5-.2 5.2 5.1 5.9v1.5h-15.9v-1.5c5.3-.7 5.1-.4 5.1-5.9v-14h-20.8v14zM162.7 100.3c0 6.7 3.1 13.7 11.6 13.7 3.3 0 5.2-1.4 6.6-2.1l.9 1.8-7.7 3.7h-1.8c-1.5 0-6.4.8-11.2-4.5-1.8-2-4-6.7-4-11.1 0-6.9 3.7-15.4 13.8-15.4 6.7 0 11 4.8 11 12.3v1.7h-19.2zm11.1-2c1.3 0 3-.8 3-3.4 0-3.8-2.9-6.4-6.2-6.4-4 0-7.8 2.4-7.8 9.8h11zM194.2 73.3v36c0 5.3-.3 5.1 4.7 5.9v1.5h-14.8v-1.5c5-.7 4.7-.5 4.7-5.9V79.1c0-1.6-.7-2.6-2.2-2.6h-2.5V75c3.5-.1 7.3-.8 9.9-1.8l.2.1zM210 124c0 2 0 2.8.2 4.2.2 1.2 2.4 1.4 6.1 1.7v1.5h-16.4v-1.5c5-.7 4.7-.5 4.7-5.9V92.9c0-2.7-1.8-2.5-4.7-2.5v-1.5c3.3-.1 7.2-.8 9.9-2.5l.1.1v4.7h.1c2.4-3 6.1-4.8 9.8-4.8 6.5 0 12.4 3.6 12.4 14.9 0 6.9-5 16.1-15.2 16.1-2.5 0-4.4-.2-7.1-1.3v7.9zm0-11.4c2 1.8 4.3 2.7 6.8 2.7 8.6 0 9.6-8.6 9.6-14 0-9.1-4.4-12.2-8.9-12.2-3.1 0-5.6 1.7-6.5 4.4-.8 2.2-1 5.6-1 8.6v10.5zM244.3 86.5v22.8c0 5.3-.3 5.1 4.7 5.9v1.5h-14.8v-1.5c5-.7 4.7-.5 4.7-5.9V92.9c0-2.7-1.8-2.5-4.7-2.5v-1.5c3.3-.1 7.2-.8 9.9-2.5l.2.1zm-3.4-10.9c1.9 0 3.5 1.6 3.5 3.4s-1.6 3.5-3.4 3.5c-1.9 0-3.5-1.5-3.5-3.5 0-1.8 1.6-3.4 3.4-3.4zM261.1 109.3c0 5.3-.3 5.1 4.7 5.9v1.5H251v-1.5c5-.7 4.7-.5 4.7-5.9V92.9c0-2.7-1.8-2.5-4.7-2.5v-1.5c3.3-.1 7.2-.8 9.9-2.5l.1.1v5.1c2.5-3 6.8-5.2 11.9-5.2 7.2 0 8.6 4.3 8.6 10.5v12.4c0 5.3-.3 5.1 4.7 5.9v1.5h-14.8v-1.5c5-.7 4.7-.5 4.7-5.9V98.4c0-3.7-.2-8.9-6.5-8.9-7.6 0-8.8 6.5-8.8 12.6v7.2zM310 89.7c1.4 1.2 2.5 4.2 2.5 7.2 0 4.5-4.3 9.6-11.5 9.6-1.1 0-2-.1-2.4-.1-.8.6-1.7 1.4-1.7 2.4 0 1.4 2.4 1.7 6 2.4l5.4 1.1c4.2.8 7.3 3.7 7.3 8 0 6-6 11.1-13.8 11.1-7.6 0-14-3.9-14-10.4 0-.9-.1-2.1.8-2.7l6.2-3.3v-.1c-2.7-.4-4.3-1.8-3.8-4.5l5.6-4.6c-4.5-2.2-6.7-5.1-6.7-9.8 0-6.3 6-9.6 11.6-9.6 2.1 0 4 .2 5.4.9 3.8.1 7.3-.2 10.1-.9l.6.8-1.6 2.6h-6zm-12.5 25.8c-2.4 1.4-4.8 3.1-4.8 6.2 0 4.4 3.4 7.7 9.5 7.7 5.4 0 8.8-3.4 8.8-6.7 0-5-4.1-5.6-7.7-6.2l-5.8-1zm-1.9-20.3c0 4 1.4 9.8 6.4 9.6 4-.2 4.8-4.4 4.8-7.2 0-5.4-2.1-9.8-6-9.7-3.9.3-5.2 4.5-5.2 7.3zM341.4 100c0 8.3 2.2 14.6 11.1 14.6 8.1 0 12.4-5.4 12.4-14.9V83.2c0-1.2-.2-2.2-.4-3.2-.3-2.1-2.3-3-5.1-3.3v-1.5h14v1.5c-2.8.3-4.8 1.1-5.1 3.3-.1.9-.4 2-.4 3.2v16.7c0 12.7-8.1 17.4-15.7 17.4-12.6 0-16.5-6.4-16.5-17.1V82.7c0-5.5.2-5.2-5.1-5.9v-1.5h15.9v1.5c-5.3.7-5.1.4-5.1 5.9V100zM382.1 124c0 2 0 2.8.2 4.2.2 1.2 2.4 1.4 6.1 1.7v1.5H372v-1.5c5-.7 4.7-.5 4.7-5.9V92.9c0-2.7-1.8-2.5-4.7-2.5v-1.5c3.3-.1 7.2-.8 9.9-2.5l.1.1v4.7h.1c2.4-3 6.1-4.8 9.8-4.8 6.5 0 12.4 3.6 12.4 14.9 0 6.9-5 16.1-15.2 16.1-2.5 0-4.4-.2-7.1-1.3v7.9zm0-11.4c2 1.8 4.3 2.7 6.8 2.7 8.6 0 9.6-8.6 9.6-14 0-9.1-4.4-12.2-8.9-12.2-3.1 0-5.6 1.7-6.5 4.4-.8 2.2-1 5.6-1 8.6v10.5zM121.8 141h-.1v24c0 1.2.2 2.2.3 3.2.3 2.1 2.3 3 5.1 3.3v1.5h-13.3v-1.5c2.8-.3 4.8-1.1 5.1-3.3.1-.9.4-2 .4-3.2v-26.8c-1.2-2.8-4.1-5.1-6.9-5.1v-1.5h11.2l16.5 33.1 17-33.1h9.6v1.5c-4.3 0-5.9 2.4-5.9 6.1v26.4c0 5.5-.2 5.2 5.1 5.9v1.5H150v-1.5c5.3-.7 5.1-.4 5.1-5.9v-24.8h-.1l-16.1 32.6h-.9L121.8 141zM178.3 142.8v22.8c0 5.3-.3 5.1 4.7 5.9v1.5h-14.8v-1.5c5-.7 4.7-.5 4.7-5.9v-16.4c0-2.7-1.8-2.5-4.7-2.5v-1.5c3.3-.1 7.2-.8 9.9-2.5l.2.1zm-3.3-10.9c1.9 0 3.5 1.6 3.5 3.4 0 1.8-1.6 3.5-3.4 3.5-1.9 0-3.5-1.5-3.5-3.5-.1-1.8 1.5-3.4 3.4-3.4zM186.1 165.5h1.5c-.1 4.1 3 6.1 6.4 6.1 3.4 0 5.4-2.6 5.4-5.1 0-3.8-3.1-5.2-6.6-7.7-4.8-3.5-6.7-4.4-6.7-8.3 0-5 4.6-7.7 9.5-7.7 1.9 0 4.3.1 7 1v5.9H201c-.2-2-2-4.8-5.3-4.8-2.5 0-4.6 1.5-4.6 3.8 0 2.8 3 4.4 7.3 7.5 5.6 3.9 6.3 6.1 6.3 8.8 0 6.1-5.6 8.9-10.7 8.9-3.3 0-5.8-.5-8-1.6v-6.8zM208.4 165.5h1.5c-.1 4.1 3 6.1 6.4 6.1 3.4 0 5.4-2.6 5.4-5.1 0-3.8-3.1-5.2-6.6-7.7-4.8-3.5-6.7-4.4-6.7-8.3 0-5 4.6-7.7 9.5-7.7 1.9 0 4.3.1 7 1v5.9h-1.5c-.2-2-2-4.8-5.3-4.8-2.5 0-4.6 1.5-4.6 3.8 0 2.8 3 4.4 7.3 7.5 5.6 3.9 6.3 6.1 6.3 8.8 0 6.1-5.6 8.9-10.7 8.9-3.3 0-5.8-.5-8-1.6v-6.8zM239.4 142.8v22.8c0 5.3-.3 5.1 4.7 5.9v1.5h-14.8v-1.5c5-.7 4.7-.5 4.7-5.9v-16.4c0-2.7-1.8-2.5-4.7-2.5v-1.5c3.3-.1 7.2-.8 9.9-2.5l.2.1zm-3.3-10.9c1.9 0 3.5 1.6 3.5 3.4 0 1.8-1.6 3.5-3.4 3.5-1.9 0-3.5-1.5-3.5-3.5 0-1.8 1.6-3.4 3.4-3.4zM244.9 158.4c0-8.2 6-15.7 15.8-15.7 7.4 0 14.7 5 14.7 15.3 0 8.6-6.3 15.7-15.8 15.7-7.5 0-14.7-5.2-14.7-15.3zm24.7-.2c0-6.6-2.8-13.5-9.7-13.5-5.1 0-9.1 4.3-9.1 13.4 0 7.6 3.4 13.4 9.8 13.4 4.9.1 9-4.1 9-13.3zM286.2 165.6c0 5.3-.3 5.1 4.7 5.9v1.5h-14.8v-1.5c5-.7 4.7-.5 4.7-5.9v-16.4c0-2.7-1.8-2.5-4.7-2.5v-1.5c3.3-.1 7.2-.8 9.9-2.5l.1.1v5.1c2.5-3 6.8-5.2 11.9-5.2 7.2 0 8.6 4.3 8.6 10.5v12.4c0 5.3-.3 5.1 4.7 5.9v1.5h-14.8v-1.5c5-.7 4.7-.5 4.7-5.9v-10.9c0-3.7-.2-8.9-6.5-8.9-7.6 0-8.8 6.5-8.8 12.6v7.2z"/></g><g fill="#FFF"><path d="M314.2 147.6c0 .8 0 .7.7.8v.2h-2.2v-.2c.7-.1.7 0 .7-.8v-4.5h-.7c-.7 0-.9.5-1.2 1h-.2l.2-1.3h4.6l.2 1.3h-.2c-.3-.5-.4-1-1.2-1h-.7v4.5zM318.1 144.2v3.9c0 .3.3.4.7.5v.2h-1.9v-.2c.4 0 .7-.2.7-.5v-4.3c-.2-.4-.6-.7-1-.7v-.2h1.6l2.3 4.7 2.4-4.7h1.3v.2c-.6 0-.8.3-.8.9v3.7c0 .8 0 .7.7.8v.2H322v-.2c.7-.1.7 0 .7-.8v-3.5l-2.3 4.6h-.1l-2.2-4.6z"/></g></svg>