<?xml version="1.0" encoding="utf-8"?>
<!-- Generator: Adobe Illustrator 19.0.0, SVG Export Plug-In . SVG Version: 6.00 Build 0)  -->
<!DOCTYPE svg PUBLIC "-//W3C//DTD SVG 1.1//EN" "http://www.w3.org/Graphics/SVG/1.1/DTD/svg11.dtd">
<svg version="1.1" id="Layer_1" xmlns="http://www.w3.org/2000/svg" xmlns:xlink="http://www.w3.org/1999/xlink" x="0px" y="0px"
	 viewBox="0 0 149 86" enable-background="new 0 0 149 86" xml:space="preserve">
<g>
	<g>
		<path d="M40.7,1.5h-2.5c-2,0-2.7,0.4-3.9,2.7h-0.8l0.2-3.7H50l0.3,3.7h-0.8c-1.3-2.3-1.9-2.7-3.9-2.7h-2.5V13
			c0,1.4,0.5,2.2,2.5,2.2v0.9h-7.3v-0.9c1.9,0,2.5-0.7,2.5-2.4V1.5z"/>
		<path d="M61.6,13.5c0,1.2,0.7,1.8,1.7,1.8v0.8h-5.3v-0.8c1.2,0,1.7-0.7,1.7-1.6V9.4c0-1.4-0.9-2.2-2.2-2.2c-1,0-1.9,0.4-2.8,1v5.1
			c0,1.4,0.5,2,1.8,2v0.8H51v-0.8c1.3,0,1.7-0.9,1.7-1.8V2.8l-1.7-1V1.3l3.1-1h0.6v7.1c1.4-1.3,2.4-1.7,3.8-1.7
			c1.6,0,3.1,0.9,3.1,3.3V13.5z"/>
		<path d="M64.7,9.8c-0.1,3.1,1.8,4.7,3.9,4.7c1.1,0,2-0.3,2.9-1.1l0.5,0.4c-1,1.6-2.5,2.5-4.2,2.5c-2.8,0-4.7-2.2-4.7-5.3
			c0-3.1,2.1-5.5,4.8-5.5c2.9,0,4.2,2.6,4.2,4.2H64.7z M69.6,9c-0.2-1.6-1-2.5-2.3-2.5c-1.3,0-2.3,1-2.5,2.5H69.6z"/>
	</g>
	<g>
		<path d="M11.4,20.4c0-3.1-1.4-4.5-4.9-4.5v-1.8h16.8c6.4,0,10.1,2.8,10.1,7.7c0,4.3-2.9,6.4-9.4,7.4v0.1
			c8.2,0.2,10.7,4.5,10.7,8.1c0,5.3-5,8.4-10.6,8.4H6.5V44c3.8,0,4.9-1.7,4.9-4.8V20.4z M20.7,28.1c4.9,0,7.1-1.4,7.1-5.6
			c0-4.3-2.8-6.4-7.8-6.4h-3.7v12H20.7z M16.3,39c0,3,1.4,4.7,4.4,4.7H23c3.8,0,6.1-2.4,6.1-6.1c0-3.5-2.3-7.3-8.1-7.3h-4.7V39z"/>
		<path d="M47.1,24.3c6.4,0,10.8,4.5,10.8,10.8c0,6.3-4.5,11.1-10.4,11.1c-5.8,0-10.7-5.1-10.7-11.1S41.3,24.3,47.1,24.3z
			 M47.8,44.5c3.6,0,5.8-2.6,5.8-6.6c0-4-1.6-11.9-6.8-11.9c-3.5,0-5.8,1.9-5.8,7.3C41.1,37.5,43.1,44.5,47.8,44.5z"/>
		<path d="M69.2,40.9l4.6-10.2c-1.3-3.5-1.7-4.1-4-4.1v-1.7h10.1v1.7c-2.9,0.2-3.2,1.4-2,4.5l3.8,9.6l4.1-9.9
			c0.7-1.8,0.8-4.1-2.3-4.1v-1.7H91v1.7c-1.4,0.3-2,0.7-2.7,2.4l-7.2,17.3h-1.5L74.6,33l-5.8,13.2h-1.6l-6.7-16.7
			c-0.9-2.2-1.3-2.7-2.5-3v-1.7h8.5v1.7c-2.4,0.1-2.8,1.4-1.9,3.6L69.2,40.9z"/>
		<path d="M93.8,32.9c-0.2,6.2,3.7,9.6,8,9.6c2.2,0,4-0.7,5.8-2.2l1,0.9c-2,3.2-5.1,5.1-8.6,5.1c-5.6,0-9.6-4.5-9.6-10.7
			c0-6.4,4.2-11.2,9.7-11.2c6,0,8.6,5.2,8.6,8.5H93.8z M103.7,31.2c-0.4-3.3-2-5.1-4.6-5.1c-2.7,0-4.6,2-5.1,5.1H103.7z"/>
		<path d="M117.1,39.6c0,3.5,0.6,4.5,4.7,4.5v1.7h-12.1V44c1.9,0,3.4-0.9,3.4-3.6V29.6l-3.4-1.7v-1.1l6.2-2.5h1.2v4.6h0.1
			c2.1-3.4,3.2-4.4,5.7-4.4c2,0,3.4,1.7,3.4,2.6c0,0.2-0.5,3-1.9,3c-1.6,0-1.9-2.2-3.5-2.2c-1.1,0-1.9,0.8-3.8,3.4V39.6z"/>
		<path d="M130.3,29.3c-1.2-2.7-1.9-2.7-3.3-2.7v-1.7H137v1.7c-2.7,0.1-3.3,1.1-2.3,3.5l4.8,10.9l4-10.2c0.9-2.4,0.3-4.2-2.6-4.3
			v-1.7h8v1.7c-1.8,0.4-2.3,1.2-3.2,3.5l-7.7,19.6c-1.3,3.4-3.3,5-6.1,5c-2.2,0-3.7-1.1-3.7-2.6c0-1.1,0.9-1.9,2-1.9
			c1.6,0,1.6,1.5,3.3,1.5c1.8,0,2.9-1.6,4.1-5.6L130.3,29.3z"/>
	</g>
	<g>
		<path d="M63.8,69.7c0.3,2,1,3.1,3.5,3.4v1.3H57.1v-1.3c2.3,0,3.2-1.4,2.9-3.6l-1.6-13h-0.1c-2.4,7.1-6.9,13.3-7.9,17.9H49
			c-0.7-4.3-6-12.2-8-18.5H41l-1.8,12.3c-0.5,3.5,0.3,4.7,3,4.9v1.3h-7.9v-1.3c2,0,2.8-1,3.2-3.5l1.9-12.6c0.4-2.9-0.1-4.3-2.5-4.5
			v-1.3h6.7c0.4,5.9,5.4,12.8,7.1,18.2c2.9-5.8,4.8-9.8,6-12.4c1-2.4,1.3-4.1,1-5.8h6.9v1.3c-2.6,0.2-2.8,1.5-2.5,3.9L63.8,69.7z"/>
		<path d="M71,62.5l-2.6-1.3v-0.8l4.6-1.7h0.8v11.7c0,1.9,0.9,2.7,2.1,2.7v1.2h-7.4v-1.2c1.3,0,2.4-0.8,2.4-2.5V62.5z M72.3,50.9
			c1,0,1.8,0.8,1.8,1.8c0,1-0.8,1.8-1.8,1.8c-1,0-1.8-0.8-1.8-1.8C70.5,51.7,71.3,50.9,72.3,50.9z"/>
		<path d="M86.5,63.9h-1C85,61.2,83.9,60,82,60c-1.6,0-2.5,0.8-2.5,2.3c0,2.5,5.1,3.1,7.1,5.1c0.7,0.7,1.1,1.8,1.1,2.9
			c0,2.8-2,4.5-5.2,4.5c-1.7,0-3.7-0.4-5-1.1v-4.3h1.1c0.3,2.6,1.6,4.1,3.6,4.1c1.8,0,3.1-1,3.1-2.4c0-2.6-4.5-2.5-7.2-5.3
			C77.4,65.1,77,64,77,63c0-2.5,2-4.2,4.9-4.2c1.8,0,3.3,0.5,4.6,1.5V63.9z"/>
		<path d="M98.9,63.9h-1c-0.5-2.7-1.6-3.9-3.5-3.9c-1.6,0-2.5,0.8-2.5,2.3c0,2.5,5.1,3.1,7.1,5.1c0.7,0.7,1.1,1.8,1.1,2.9
			c0,2.8-2,4.5-5.2,4.5c-1.7,0-3.7-0.4-5-1.1v-4.3H91c0.3,2.6,1.6,4.1,3.6,4.1c1.8,0,3.1-1,3.1-2.4c0-2.6-4.5-2.5-7.2-5.3
			c-0.7-0.7-1.1-1.8-1.1-2.8c0-2.5,2-4.2,4.9-4.2c1.8,0,3.3,0.5,4.6,1.5V63.9z"/>
		<path d="M103.5,62.5l-2.6-1.3v-0.8l4.6-1.7h0.8v11.7c0,1.9,0.9,2.7,2.1,2.7v1.2h-7.4v-1.2c1.3,0,2.4-0.8,2.4-2.5V62.5z
			 M104.8,50.9c1,0,1.8,0.8,1.8,1.8c0,1-0.8,1.8-1.8,1.8c-1,0-1.8-0.8-1.8-1.8C103,51.7,103.8,50.9,104.8,50.9z"/>
		<path d="M116.8,58.8c4.6,0,7.9,3.3,7.9,7.9c0,4.6-3.3,8.1-7.6,8.1c-4.3,0-7.8-3.7-7.8-8.1C109.2,62.3,112.6,58.8,116.8,58.8z
			 M117.3,73.5c2.6,0,4.3-1.9,4.3-4.8c0-2.9-1.2-8.7-5-8.7c-2.5,0-4.2,1.4-4.2,5.4C112.4,68.4,113.8,73.5,117.3,73.5z"/>
		<path d="M130.6,70.4c0,1.9,0.7,2.8,2.7,2.8v1.2h-8.1v-1.2c1.7-0.1,2.5-0.9,2.5-2.6v-8.2l-2.3-1.3v-0.8l4.3-1.6h0.8v2.9h0.1
			c1.4-1.8,3.6-2.9,5.4-2.9c3.1,0,5,1.6,5,5.2v6.4c0,1.7,0.5,2.5,2.4,2.7v1.2h-8v-1.2c2,0,2.7-0.9,2.7-2.8v-5.6c0-2.1-1-3.7-3.2-3.7
			c-1.6,0-3,0.8-4.4,2V70.4z"/>
	</g>
	<g>
		<path fill="#C3002F" d="M41.5,79.2c1.2,0,2,0.3,2,1.2c0,0.8-0.7,1.3-1.8,1.4l0.5,1.5c0.2,0.6,0.3,0.7,0.8,0.8l-0.1,0.3h-1.2
			c-0.2-0.2-0.4-0.9-0.9-2.5c-0.1,0-0.2,0-0.5,0c-0.2,0-0.2,0-0.4,0l-0.3,1.3c-0.1,0.2-0.1,0.3-0.1,0.4c0,0.3,0.2,0.5,0.5,0.5
			L40,84.3h-2.3l0.1-0.3c0.6,0,0.8-0.4,0.9-0.9l0.8-2.8c0.1-0.2,0.1-0.3,0.1-0.5c0-0.3-0.2-0.5-0.6-0.5l0.1-0.3H41.5z M42.1,81.2
			c0.3-0.3,0.3-0.6,0.3-0.8c0-0.5-0.4-0.9-1.1-0.9h-0.7l-0.6,2.1C41.4,81.6,41.9,81.4,42.1,81.2z"/>
		<path fill="#C3002F" d="M45.3,83.9c0.3,0,0.7-0.2,1.1-0.5h0.4c-0.5,0.6-1.2,1-1.8,1c-0.8,0-1.3-0.5-1.3-1.2c0-1.1,1.1-2.3,2.3-2.3
			c0.6,0,1,0.3,1,0.8c0,1-1.6,1.3-2.4,1.4C44.4,83.6,44.8,83.9,45.3,83.9z M46.2,81.7c0-0.3-0.2-0.4-0.5-0.4c-0.7,0-1.2,0.9-1.3,1.6
			C45.5,82.8,46.2,82.3,46.2,81.7z"/>
		<path fill="#C3002F" d="M48.6,81.7L48.6,81.7c0.5-0.5,1-0.7,1.4-0.7c0.7,0,1.2,0.5,1.2,1.2c0,1.3-1.4,2.3-2.4,2.3
			c-0.8,0-1.5-0.5-1.5-1.2c0-0.2,0-0.4,0.1-0.7l0.8-2.6c0.1-0.3,0-0.3-0.3-0.3h-0.3l0.1-0.3c0.5,0,1-0.1,1.4-0.3h0.2L48.6,81.7z
			 M48.8,81.9c-0.5,0.5-0.6,1.1-0.6,1.5c0,0.4,0.3,0.7,0.7,0.7c0.9,0,1.5-1.4,1.5-2c0-0.4-0.3-0.7-0.7-0.7
			C49.4,81.5,49.1,81.6,48.8,81.9z"/>
		<path fill="#C3002F" d="M55.2,83.6c0,0.1-0.1,0.2-0.1,0.3c0,0.1,0.1,0.1,0.1,0.1c0.1,0,0.4-0.2,0.6-0.6h0.3c-0.4,0.8-1,1-1.4,1
			c-0.4,0-0.4-0.2-0.4-0.4c0-0.2,0.1-0.4,0.1-0.6l0.2-0.7l0,0c-0.9,1.4-1.6,1.6-1.9,1.6c-0.3,0-0.6-0.2-0.6-0.6
			c0-0.2,0.1-0.4,0.1-0.6l0.4-1.3c0.1-0.2,0.1-0.2,0.1-0.3c0-0.1-0.1-0.2-0.2-0.2c-0.2,0-0.4,0.2-0.5,0.5h-0.3c0.5-0.9,1-1,1.3-1
			c0.4,0,0.6,0.2,0.6,0.5c0,0.1,0,0.2-0.1,0.5l-0.5,1.6c0,0.1-0.1,0.2-0.1,0.3c0,0.1,0,0.2,0.2,0.2c0.5,0,1.1-0.9,1.2-1.1
			c0.4-0.5,0.6-1.1,0.9-1.9h0.8L55.2,83.6z"/>
		<path fill="#C3002F" d="M56.4,82.1c0.4-0.7,0.8-1.1,1.4-1.1c0.3,0,0.6,0.2,0.6,0.4c0,0.2-0.1,0.4-0.1,0.5l-0.6,1.6
			c0,0.1-0.1,0.3-0.1,0.3c0,0.1,0.1,0.2,0.1,0.2c0.2,0,0.4-0.2,0.7-0.6h0.3c-0.4,0.7-1,1.1-1.5,1.1c-0.3,0-0.5-0.2-0.5-0.5
			c0-0.1,0-0.2,0.1-0.5l0.7-1.7c0-0.1,0.1-0.2,0.1-0.2c0-0.1-0.1-0.2-0.1-0.2c-0.2,0-0.4,0.2-0.6,0.6H56.4z M58,79.5
			c0-0.2,0.2-0.4,0.4-0.4c0.2,0,0.4,0.2,0.4,0.4c0,0.2-0.2,0.4-0.4,0.4C58.2,79.9,58,79.7,58,79.5z"/>
		<path fill="#C3002F" d="M60,83.4c0,0.1-0.1,0.2-0.1,0.3s0.1,0.1,0.1,0.1c0.2,0,0.4-0.2,0.6-0.5H61c-0.3,0.6-1,1.1-1.4,1.1
			c-0.3,0-0.4-0.1-0.4-0.4c0-0.2,0.1-0.4,0.1-0.5l1-3.4c0.1-0.2,0.1-0.3,0.1-0.3c0-0.1-0.1-0.1-0.3-0.1h-0.4l0.1-0.3
			c0.5,0,1.1-0.1,1.5-0.3h0.2L60,83.4z"/>
		<path fill="#C3002F" d="M64.6,83.5c-0.1,0.2,0,0.3,0.1,0.3c0.2,0,0.4-0.1,0.6-0.4h0.2c-0.3,0.6-0.8,1-1.3,1
			c-0.3,0-0.5-0.2-0.5-0.5c0-0.1,0-0.2,0-0.3l0,0c-0.4,0.5-0.9,0.8-1.4,0.8c-0.6,0-1-0.4-1-1c0-1.3,1-2.4,2.2-2.4
			c0.3,0,0.6,0.1,0.9,0.3l0.3-1.1c0.1-0.2,0.1-0.3,0.1-0.4c0-0.1-0.1-0.1-0.3-0.1h-0.3l0.1-0.3c0.5,0,1-0.1,1.5-0.3H66L64.6,83.5z
			 M63.6,83.5c0.5-0.5,0.7-1.4,0.7-1.6c0-0.4-0.3-0.7-0.7-0.7c-0.7,0-1.4,1.1-1.4,1.9c0,0.4,0.2,0.7,0.6,0.7
			C63.1,83.8,63.3,83.7,63.6,83.5z"/>
		<path fill="#C3002F" d="M65.8,82.1c0.4-0.7,0.8-1.1,1.4-1.1c0.3,0,0.6,0.2,0.6,0.4c0,0.2-0.1,0.4-0.1,0.5L67,83.5
			c0,0.1-0.1,0.3-0.1,0.3c0,0.1,0.1,0.2,0.1,0.2c0.2,0,0.4-0.2,0.7-0.6H68c-0.4,0.7-1,1.1-1.5,1.1c-0.3,0-0.5-0.2-0.5-0.5
			c0-0.1,0-0.2,0.1-0.5l0.7-1.7c0-0.1,0.1-0.2,0.1-0.2c0-0.1-0.1-0.2-0.1-0.2c-0.2,0-0.4,0.2-0.6,0.6H65.8z M67.4,79.5
			c0-0.2,0.2-0.4,0.4-0.4c0.2,0,0.4,0.2,0.4,0.4c0,0.2-0.2,0.4-0.4,0.4C67.6,79.9,67.4,79.7,67.4,79.5z"/>
		<path fill="#C3002F" d="M69.2,81.7c0.1-0.3,0.1-0.3-0.1-0.3c-0.1,0-0.4,0.3-0.6,0.6h-0.3c0.3-0.6,0.8-1,1.2-1
			c0.3,0,0.5,0.2,0.5,0.5c0,0.3-0.2,0.8-0.4,1.5l0,0c0.6-1.1,1.4-2,2.2-2c0.4,0,0.7,0.2,0.7,0.6c0,0.2,0,0.2-0.1,0.5l-0.5,1.4
			c-0.1,0.2,0,0.4,0.1,0.4c0.1,0,0.3-0.2,0.6-0.5h0.3c-0.3,0.5-0.8,1-1.3,1c-0.3,0-0.5-0.2-0.5-0.4c0-0.1,0-0.2,0.1-0.3l0.5-1.5
			c0.1-0.1,0.2-0.5,0.2-0.6c0-0.1-0.1-0.2-0.2-0.2c-0.2,0-0.5,0.2-0.9,0.6c-0.4,0.5-0.9,1.3-1.1,1.8l-0.2,0.5h-0.8L69.2,81.7z"/>
		<path fill="#C3002F" d="M74.5,83.3c-0.1,0-0.7,0.1-0.7,0.3c0,0.2,0.1,0.2,0.7,0.3c0.8,0,1.5,0.2,1.5,0.8c0,0.5-0.5,1-2,1
			c-1.3,0-1.7-0.4-1.7-0.6c0-0.3,0.3-0.5,1-0.7c-0.2-0.1-0.2-0.2-0.2-0.4c0-0.4,0.3-0.7,0.9-0.8v0c-0.5-0.2-0.7-0.5-0.7-1
			c0-0.7,0.6-1.3,1.6-1.3c0.4,0,0.7,0.1,1.1,0.3c0.2-0.1,0.3-0.2,0.5-0.2c0.1-0.1,0.3-0.1,0.4-0.1c0.2,0,0.2,0,0.2,0.2v0.3
			c0,0.1,0,0.2-0.1,0.2c-0.2,0-0.2-0.2-0.5-0.2h-0.3c0.2,0.3,0.3,0.5,0.3,0.8c0,0.7-0.6,1.2-1.5,1.2C74.8,83.4,74.5,83.3,74.5,83.3z
			 M74.1,84.6c-0.2,0-0.4,0-0.5-0.1c-0.3,0.1-0.5,0.3-0.5,0.5c0,0.3,0.4,0.4,1.1,0.4c0.8,0,1.3-0.2,1.3-0.5
			C75.5,84.7,75.1,84.7,74.1,84.6z M74.8,83.1c0.6,0,0.8-0.7,0.8-1.1c0-0.4-0.3-0.7-0.6-0.7c-0.6,0-0.9,0.7-0.9,1.1
			C74.1,82.8,74.4,83.1,74.8,83.1z"/>
		<path fill="#C3002F" d="M80.7,83.1c-0.1,0.2-0.1,0.4-0.1,0.5c0,0.3,0.2,0.5,0.7,0.5h0.3c0.6,0,1-0.3,1.5-1h0.4L83,84.3h-4l0.1-0.3
			c0.4-0.1,0.5-0.2,0.7-0.9l0.8-2.8c0.1-0.2,0.1-0.4,0.1-0.5c0-0.3-0.2-0.4-0.4-0.4l0.1-0.3h2.2l-0.1,0.3c-0.6,0-0.7,0.2-0.9,0.9
			L80.7,83.1z"/>
		<path fill="#C3002F" d="M83.7,82.1c0.4-0.7,0.8-1.1,1.4-1.1c0.3,0,0.6,0.2,0.6,0.4c0,0.2-0.1,0.4-0.1,0.5l-0.6,1.6
			c0,0.1-0.1,0.3-0.1,0.3c0,0.1,0.1,0.2,0.1,0.2c0.2,0,0.4-0.2,0.7-0.6h0.3c-0.4,0.7-1,1.1-1.5,1.1c-0.3,0-0.5-0.2-0.5-0.5
			c0-0.1,0-0.2,0.1-0.5l0.7-1.7c0-0.1,0.1-0.2,0.1-0.2c0-0.1-0.1-0.2-0.1-0.2c-0.2,0-0.4,0.2-0.6,0.6H83.7z M85.3,79.5
			c0-0.2,0.2-0.4,0.4-0.4c0.2,0,0.4,0.2,0.4,0.4c0,0.2-0.2,0.4-0.4,0.4C85.5,79.9,85.3,79.7,85.3,79.5z"/>
		<path fill="#C3002F" d="M86.8,81.7c-0.3,0-0.5,0-0.5,0.2c0,0.1,0.1,0.1,0.1,0.2c0,0.1-0.1,0.2-0.2,0.2c-0.1,0-0.2-0.1-0.2-0.2
			c0-0.3,0.3-1,1-1h1.3c-0.2,0.5-0.9,1.5-0.9,2.2c0,0.4,0.3,0.7,0.6,0.7c0.7,0,1.3-0.9,1.3-1.5c0-0.5-0.4-0.7-0.4-1.1
			c0-0.2,0.1-0.4,0.3-0.4c0.3,0,0.5,0.3,0.5,0.8c0,1.4-1,2.7-2.1,2.7c-0.7,0-1.1-0.4-1.1-1c0-0.4,0.2-0.7,0.7-1.3
			c0.1-0.1,0.3-0.4,0.4-0.5H86.8z"/>
		<path fill="#C3002F" d="M92,83.9c0.3,0,0.7-0.2,1.1-0.5h0.4c-0.5,0.6-1.2,1-1.8,1c-0.8,0-1.3-0.5-1.3-1.2c0-1.1,1.1-2.3,2.3-2.3
			c0.6,0,1,0.3,1,0.8c0,1-1.6,1.3-2.4,1.4C91.1,83.6,91.5,83.9,92,83.9z M92.9,81.7c0-0.3-0.2-0.4-0.5-0.4c-0.7,0-1.2,0.9-1.3,1.6
			C92.2,82.8,92.9,82.3,92.9,81.7z"/>
		<path fill="#C3002F" d="M95.8,81.2c-0.3,0-0.5,0.2-0.5,0.4c0,0.6,1.5,0.9,1.5,1.8c0,0.6-0.5,1-1.5,1c-0.9,0-1.5-0.3-1.5-0.8
			c0-0.2,0.1-0.4,0.3-0.4c0.6,0,0.2,0.9,1.2,0.9c0.4,0,0.6-0.2,0.6-0.5c0-0.6-1.5-1-1.5-1.8c0-0.5,0.6-0.9,1.4-0.9
			c0.7,0,1.3,0.3,1.3,0.8c0,0.2-0.2,0.3-0.4,0.3C96.2,82.1,96.6,81.2,95.8,81.2z"/>
		<path fill="#C3002F" d="M103.8,80.5h-0.4c0.2-0.8-0.5-1.1-1.1-1.1c-0.5,0-0.8,0.3-0.8,0.7c0,0.3,0.1,0.5,0.4,0.8l0.6,0.7
			c0.5,0.6,0.7,1,0.7,1.5c0,0.9-0.6,1.4-1.8,1.4c-0.7,0-1.4-0.2-1.9-0.7l0.3-1h0.4c-0.1,0.9,0.5,1.4,1.3,1.4c0.6,0,1-0.4,1-0.9
			c0-0.3-0.1-0.6-0.4-0.9l-0.7-0.8c-0.3-0.3-0.6-0.7-0.6-1.1c0-0.7,0.6-1.4,1.7-1.4c0.6,0,1.1,0.2,1.7,0.5L103.8,80.5z"/>
		<path fill="#C3002F" d="M104,82.1c0.4-0.7,0.8-1.1,1.4-1.1c0.3,0,0.6,0.2,0.6,0.4c0,0.2-0.1,0.4-0.1,0.5l-0.6,1.6
			c0,0.1-0.1,0.3-0.1,0.3c0,0.1,0.1,0.2,0.1,0.2c0.2,0,0.4-0.2,0.7-0.6h0.3c-0.4,0.7-1,1.1-1.5,1.1c-0.3,0-0.5-0.2-0.5-0.5
			c0-0.1,0-0.2,0.1-0.5l0.7-1.7c0-0.1,0.1-0.2,0.1-0.2c0-0.1-0.1-0.2-0.1-0.2c-0.2,0-0.4,0.2-0.6,0.6H104z M105.6,79.5
			c0-0.2,0.2-0.4,0.4-0.4c0.2,0,0.4,0.2,0.4,0.4c0,0.2-0.2,0.4-0.4,0.4C105.8,79.9,105.6,79.7,105.6,79.5z"/>
		<path fill="#C3002F" d="M107.4,81.7c0.1-0.3,0.1-0.3-0.1-0.3c-0.1,0-0.4,0.3-0.6,0.6h-0.3c0.3-0.6,0.8-1,1.2-1
			c0.3,0,0.5,0.2,0.5,0.5c0,0.3-0.2,0.8-0.4,1.5l0,0c0.6-1.1,1.4-2,2.2-2c0.4,0,0.7,0.2,0.7,0.6c0,0.2,0,0.2-0.1,0.5l-0.5,1.4
			c-0.1,0.2,0,0.4,0.1,0.4c0.1,0,0.3-0.2,0.6-0.5h0.3c-0.3,0.5-0.8,1-1.3,1c-0.3,0-0.5-0.2-0.5-0.4c0-0.1,0-0.2,0.1-0.3l0.5-1.5
			c0.1-0.1,0.2-0.5,0.2-0.6c0-0.1-0.1-0.2-0.2-0.2c-0.2,0-0.5,0.2-0.9,0.6c-0.4,0.5-0.9,1.3-1.1,1.8l-0.2,0.5h-0.8L107.4,81.7z"/>
		<path fill="#C3002F" d="M114.5,83.4c-0.5,0.6-1.2,1-1.8,1c-0.7,0-1.3-0.5-1.3-1.2c0-1.1,1-2.3,2.2-2.3c0.6,0,1.1,0.3,1.1,0.7
			c0,0.2-0.2,0.4-0.4,0.4c-0.6,0-0.1-0.8-0.8-0.8c-0.7,0-1.3,1-1.3,1.9c0,0.5,0.3,0.8,0.8,0.8c0.4,0,0.7-0.2,1-0.5H114.5z"/>
		<path fill="#C3002F" d="M116.7,83.9c0.3,0,0.7-0.2,1.1-0.5h0.4c-0.5,0.6-1.2,1-1.8,1c-0.8,0-1.3-0.5-1.3-1.2
			c0-1.1,1.1-2.3,2.3-2.3c0.6,0,1,0.3,1,0.8c0,1-1.6,1.3-2.4,1.4C115.8,83.6,116.2,83.9,116.7,83.9z M117.7,81.7
			c0-0.3-0.2-0.4-0.5-0.4c-0.7,0-1.2,0.9-1.3,1.6C116.9,82.8,117.7,82.3,117.7,81.7z"/>
		<path fill="#C3002F" d="M122.9,83.2c-0.1,0.2-0.1,0.4-0.1,0.5c0,0.3,0.1,0.3,0.6,0.3l-0.1,0.3h-2.2l0.1-0.3c0.5,0,0.7-0.2,0.9-0.6
			l0.7-2.5c0-0.2,0.1-0.3,0.1-0.4c0-0.2-0.1-0.2-0.4-0.2h-0.3l0.1-0.3c0.6,0,1-0.2,1.4-0.6h0.4L122.9,83.2z"/>
		<path fill="#C3002F" d="M126.9,81.7c0.7,0.7,0.8,1,0.8,1.4c0,0.4-0.3,1.3-1.7,1.3c-1.4,0-1.7-0.9-1.7-1.3c0-0.6,0.6-1.1,1.6-1.4
			c-0.6-0.6-0.7-0.8-0.7-1.2c0-0.7,0.7-1.2,1.6-1.2c1,0,1.4,0.6,1.4,1.1C128.2,80.9,127.8,81.3,126.9,81.7z M126.2,82
			c-0.9,0.3-1.3,0.6-1.3,1.2c0,0.3,0.2,0.9,1.2,0.9c0.6,0,1-0.3,1-0.7c0-0.2-0.1-0.5-0.4-0.8L126.2,82z M126.6,81.4
			c0.6-0.3,0.9-0.6,0.9-1c0-0.4-0.3-0.7-0.9-0.7c-0.5,0-0.8,0.3-0.8,0.7c0,0.2,0.1,0.4,0.2,0.6L126.6,81.4z"/>
		<path fill="#C3002F" d="M132.6,79.4l-3.4,5h-0.5l2.9-4.3h-1.5c-0.4,0-0.6,0.1-0.7,0.5h-0.3l0.3-1.2H132.6z"/>
		<path fill="#C3002F" d="M132.5,84.2c1.2-0.4,2-1,2.6-2l0,0c-0.4,0.2-0.7,0.3-1,0.3c-0.7,0-1.2-0.5-1.2-1.3c0-0.8,0.6-1.8,1.8-1.8
			c0.9,0,1.6,0.7,1.6,1.7c0,0.8-0.4,1.6-1,2.2c-0.7,0.7-1.6,1.1-2.4,1.2L132.5,84.2z M134.3,82c0.3,0,0.7-0.2,1-0.5
			c0.1-0.4,0.1-0.6,0.1-0.9c0-0.6-0.3-1-0.8-1c-0.8,0-1,1-1,1.5C133.6,81.6,133.9,82,134.3,82z"/>
	</g>
	<g>
		<rect id="XMLID_121_" x="3.3" y="61.4" fill-rule="evenodd" clip-rule="evenodd" fill="#C3002F" width="1" height="7.6"/>
		<path fill-rule="evenodd" clip-rule="evenodd" fill="#C3002F" d="M6.9,61.4V69h1v-7.6H6.9z M10.4,61.4V69h1v-7.6H10.4z M10.4,61.4
			V69h1v-7.6H10.4z M6.9,61.4V69h1v-7.6H6.9z M6.9,61.4V69h1v-7.6H6.9z M10.4,61.4V69h1v-7.6H10.4z M10.4,61.4V69h1v-7.6H10.4z
			 M6.9,61.4V69h1v-7.6H6.9z M6.9,61.4V69h1v-7.6H6.9z M10.4,61.4V69h1v-7.6H10.4z M10.4,61.4V69h1v-7.6H10.4z M6.9,61.4V69h1v-7.6
			H6.9z M6.9,61.4V69h1v-7.6H6.9z M10.4,61.4V69h1v-7.6H10.4z M10.4,61.4V69h1v-7.6H10.4z M6.9,61.4V69h1v-7.6H6.9z M6.9,61.4V69h1
			v-7.6H6.9z M6.9,71.8v7.6h1v-7.6H6.9z M10.4,61.4V69h1v-7.6H10.4z M10.4,71.8v7.6h1v-7.6H10.4z M10.4,61.4V69h1v-7.6H10.4z
			 M10.4,71.8v7.6h1v-7.6H10.4z M6.9,61.4V69h1v-7.6H6.9z M6.9,71.8v7.6h1v-7.6H6.9z M0,58.3v25h14.7v-25H0z M4.9,80.1H2.8v-8.8h2.2
			V80.1z M4.9,69.6H2.8v-8.8h2.2V69.6z M8.5,80.1H6.3v-8.8h2.2V80.1z M8.5,69.6H6.3v-8.8h2.2V69.6z M12,80.1H9.8v-8.8H12V80.1z
			 M12,69.6H9.8v-8.8H12V69.6z M11.4,71.8h-1v7.6h1V71.8z M11.4,61.4h-1V69h1V61.4z M7.9,71.8h-1v7.6h1V71.8z M7.9,61.4h-1V69h1
			V61.4z M4.3,71.8h-1v7.6h1V71.8z M6.9,61.4V69h1v-7.6H6.9z M10.4,71.8v7.6h1v-7.6H10.4z M10.4,61.4V69h1v-7.6H10.4z M10.4,71.8
			v7.6h1v-7.6H10.4z M10.4,61.4V69h1v-7.6H10.4z M6.9,61.4V69h1v-7.6H6.9z M6.9,61.4V69h1v-7.6H6.9z M10.4,61.4V69h1v-7.6H10.4z
			 M10.4,61.4V69h1v-7.6H10.4z M6.9,61.4V69h1v-7.6H6.9z M6.9,61.4V69h1v-7.6H6.9z M10.4,61.4V69h1v-7.6H10.4z M10.4,61.4V69h1v-7.6
			H10.4z M6.9,61.4V69h1v-7.6H6.9z M6.9,61.4V69h1v-7.6H6.9z M10.4,61.4V69h1v-7.6H10.4z M10.4,61.4V69h1v-7.6H10.4z M6.9,61.4V69h1
			v-7.6H6.9z M6.9,61.4V69h1v-7.6H6.9z M6.9,61.4V69h1v-7.6H6.9z"/>
		<path id="XMLID_64_" fill-rule="evenodd" clip-rule="evenodd" fill="#C3002F" d="M7.1,56.9l7.7,0l0-3.7h1.4l0,3.7l7.3,0H31
			c0,0,0-0.2,0-0.3c-1.6-3.3-7.9-5.8-15.5-5.8c-7.6,0-13.7,2.5-15.4,5.8c0,0.1,0,0.3,0,0.3L7.1,56.9z"/>
		<rect id="XMLID_63_" x="19.6" y="61.4" fill-rule="evenodd" clip-rule="evenodd" fill="#C3002F" width="1" height="7.6"/>
		<path fill-rule="evenodd" clip-rule="evenodd" fill="#C3002F" d="M23.1,61.4V69h1v-7.6H23.1z M23.1,61.4V69h1v-7.6H23.1z
			 M23.1,61.4V69h1v-7.6H23.1z M26.6,61.4V69h1v-7.6H26.6z M26.6,71.8v7.6h1v-7.6H26.6z M26.6,61.4V69h1v-7.6H26.6z M26.6,71.8v7.6
			h1v-7.6H26.6z M23.1,61.4V69h1v-7.6H23.1z M19.6,71.8v7.6h1v-7.6H19.6z M23.1,61.4V69h1v-7.6H23.1z M23.1,71.8v7.6h1v-7.6H23.1z
			 M26.6,61.4V69h1v-7.6H26.6z M26.6,71.8v7.6h1v-7.6H26.6z M26.6,61.4V69h1v-7.6H26.6z M26.6,71.8v7.6h1v-7.6H26.6z M23.1,61.4V69
			h1v-7.6H23.1z M23.1,71.8v7.6h1v-7.6H23.1z M19.6,71.8v7.6h1v-7.6H19.6z M19.6,71.8v7.6h1v-7.6H19.6z M23.1,61.4V69h1v-7.6H23.1z
			 M23.1,71.8v7.6h1v-7.6H23.1z M26.6,61.4V69h1v-7.6H26.6z M26.6,71.8v7.6h1v-7.6H26.6z M26.6,61.4V69h1v-7.6H26.6z M26.6,71.8v7.6
			h1v-7.6H26.6z M23.1,61.4V69h1v-7.6H23.1z M23.1,71.8v7.6h1v-7.6H23.1z M19.6,71.8v7.6h1v-7.6H19.6z M16.2,58.3v25H31v-25H16.2z
			 M21.1,80.1H19v-8.8h2.2V80.1z M21.1,69.6H19v-8.8h2.2V69.6z M24.7,80.1h-2.2v-8.8h2.2V80.1z M24.7,69.6h-2.2v-8.8h2.2V69.6z
			 M28.2,80.1H26v-8.8h2.2V80.1z M28.2,69.6H26v-8.8h2.2V69.6z M27.6,71.8h-1v7.6h1V71.8z M27.6,61.4h-1V69h1V61.4z M24.1,71.8h-1
			v7.6h1V71.8z M24.1,61.4h-1V69h1V61.4z M20.6,71.8h-1v7.6h1V71.8z M19.6,71.8v7.6h1v-7.6H19.6z M23.1,71.8v7.6h1v-7.6H23.1z
			 M23.1,61.4V69h1v-7.6H23.1z M26.6,71.8v7.6h1v-7.6H26.6z M26.6,61.4V69h1v-7.6H26.6z M26.6,71.8v7.6h1v-7.6H26.6z M26.6,61.4V69
			h1v-7.6H26.6z M23.1,71.8v7.6h1v-7.6H23.1z M23.1,61.4V69h1v-7.6H23.1z M19.6,71.8v7.6h1v-7.6H19.6z M23.1,71.8v7.6h1v-7.6H23.1z
			 M23.1,61.4V69h1v-7.6H23.1z M26.6,71.8v7.6h1v-7.6H26.6z M26.6,61.4V69h1v-7.6H26.6z M26.6,71.8v7.6h1v-7.6H26.6z M26.6,61.4V69
			h1v-7.6H26.6z M23.1,71.8v7.6h1v-7.6H23.1z M23.1,61.4V69h1v-7.6H23.1z M23.1,61.4V69h1v-7.6H23.1z M26.6,61.4V69h1v-7.6H26.6z
			 M26.6,61.4V69h1v-7.6H26.6z M23.1,61.4V69h1v-7.6H23.1z"/>
	</g>
</g>
</svg>
